<svg width="493" height="586" viewBox="0 0 493 586" fill="none" xmlns="http://www.w3.org/2000/svg">
<path d="M131.36 161.511V315.511L74.8605 102.511C69.8606 84.0113 87.2528 67.5127 111.36 77.0106C127.86 83.5122 140.36 97.0122 149.36 127.011C136.86 138.012 131.36 152.512 131.36 161.511Z" fill="url(#paint0_linear_415_327)"/>
<path d="M206.027 19.0121L211.527 115.512H277.027C276.527 88.0127 274.703 62.5127 272.027 48.5121C265.527 14.5127 245.527 -0.488369 226.527 0.0121038C212.027 0.0121038 205.527 9.0121 206.027 19.0121Z" fill="url(#paint1_linear_415_327)"/>
<path d="M365.5 59.5122L349.5 116.012C349.773 116.074 350.044 116.137 350.313 116.201C356.482 117.657 361.885 119.562 366.58 121.962C377.376 127.48 384.431 135.619 388.441 146.95C390.128 151.718 391.276 157.05 391.937 162.99C392.609 169.022 392.778 175.682 392.5 183.013C406 139.513 414.5 123.513 414.5 98.0122C414.5 73.5126 406 60.5126 390 52.0122C378.045 46.1469 368.5 50.0126 365.5 59.5122Z" fill="url(#paint2_linear_415_327)"/>
<path d="M222 145.513C222 139.99 226.477 135.513 232 135.513H302C307.523 135.513 312 139.99 312 145.513C312 151.036 307.523 155.513 302 155.513H232C226.477 155.513 222 151.036 222 145.513Z" fill="#D9D9D9"/>
<path d="M282 530.513C282 538.797 275.284 545.513 267 545.513C258.716 545.513 252 538.797 252 530.513C252 522.228 258.716 515.513 267 515.513C275.284 515.513 282 522.228 282 530.513Z" fill="#D9D9D9"/>
<path fill-rule="evenodd" clip-rule="evenodd" d="M164.033 407.013V541.013C167.669 551.43 172.261 554.243 183.533 555.513L297 555.513L297.533 555.513L341.5 555.513C352.5 555.513 361.5 546.013 361.5 535.513V287.013C361.5 299.013 365.94 305.74 378 316.513C382.999 308.753 387.626 301.557 392 294.735V165.513C392 164.667 391.979 163.826 391.937 162.99C391.276 157.05 390.128 151.718 388.441 146.95C384.198 136.345 376.428 127.532 366.58 121.962C361.885 119.562 356.482 117.657 350.313 116.201L350.234 116.187C347.555 115.744 344.805 115.513 342 115.513H182C154.386 115.513 132 137.898 132 165.513V395.996C138.449 400.691 148.288 403.765 164.033 407.013ZM302 135.513H232C226.477 135.513 222 139.99 222 145.513C222 151.036 226.477 155.513 232 155.513H302C307.523 155.513 312 151.036 312 145.513C312 139.99 307.523 135.513 302 135.513ZM267 545.513C275.284 545.513 282 538.797 282 530.513C282 522.228 275.284 515.513 267 515.513C258.716 515.513 252 522.228 252 530.513C252 538.797 258.716 545.513 267 545.513Z" fill="none"/>
<path d="M11.0327 270.013C-0.967324 277.513 -2.41661 289.14 3.03267 303.513C24.6705 342.008 37.5725 373.539 50.4666 405.052C63.1966 436.163 75.9189 467.256 97.0327 505.013C117.969 538.627 132.978 559.81 147.676 571.87C138.024 562.755 132 549.837 132 535.513V395.996C127.451 392.685 124.59 388.567 122.533 383.013L93.0327 312.013C75.0327 273.013 38.0327 258.013 11.0327 270.013Z" fill="#F89621"/>
<path d="M164.033 541.013V407.013C148.288 403.765 138.449 400.691 132 395.996V535.513C132 549.837 138.024 562.755 147.676 571.87C158.963 581.131 170.067 585.013 183.533 585.013L266 585.013C280.17 575.096 287.016 568.692 297 555.513L183.533 555.513C172.261 554.243 167.669 551.43 164.033 541.013Z" fill="#F89621" fill-opacity="0.6"/>
<path fill-rule="evenodd" clip-rule="evenodd" d="M366.58 121.962C361.623 119.158 356.139 117.176 350.313 116.201C356.482 117.657 361.885 119.562 366.58 121.962ZM391.937 162.99C391.276 157.05 390.128 151.718 388.441 146.95C390.441 151.949 391.657 157.347 391.937 162.99ZM343.565 585.489L266.01 585.013H266.533C281.058 575.145 287.807 568.659 297.533 555.513L297 555.513C287.016 568.692 280.17 575.096 266 585.013L183.533 585.013C170.067 585.013 158.963 581.131 147.676 571.87C156.631 580.328 168.71 585.513 182 585.513H342C342.524 585.513 343.045 585.505 343.565 585.489ZM232 135.513H302C307.523 135.513 312 139.99 312 145.513C312 151.036 307.523 155.513 302 155.513H232C226.477 155.513 222 151.036 222 145.513C222 139.99 226.477 135.513 232 135.513ZM282 530.513C282 538.797 275.284 545.513 267 545.513C258.716 545.513 252 538.797 252 530.513C252 522.228 258.716 515.513 267 515.513C275.284 515.513 282 522.228 282 530.513Z" fill="#D9D9D9"/>
<path d="M489.5 237.013C503.5 204.324 469 172.012 453.5 196.513C429.399 235.859 413.862 260.635 392 294.735V535.513C392 562.603 370.455 584.662 343.565 585.489L347.5 585.513C388.5 585.013 429.5 501.013 429.5 429.013C428 369.513 430.5 351.513 458 301.013C468.834 281.117 474.648 268.698 483.231 250.365C485.153 246.261 487.213 241.86 489.5 237.013Z" fill="#9D2E32"/>
<path d="M297.533 555.513C287.807 568.659 281.058 575.145 266.533 585.013H266.01L343.565 585.489C370.455 584.662 392 562.603 392 535.513V294.735C387.626 301.557 382.999 308.753 378 316.513C365.94 305.74 361.5 299.013 361.5 287.013V535.513C361.5 546.013 352.5 555.513 341.5 555.513L297.533 555.513Z" fill="#9D2E32" fill-opacity="0.6"/>
<defs>
<linearGradient id="paint0_linear_415_327" x1="246.386" y1="0" x2="246.386" y2="585.513" gradientUnits="userSpaceOnUse">
<stop stop-color="#E7604B"/>
<stop offset="1" stop-color="#D13F30"/>
</linearGradient>
<linearGradient id="paint1_linear_415_327" x1="246.386" y1="0" x2="246.386" y2="585.513" gradientUnits="userSpaceOnUse">
<stop stop-color="#6C305F"/>
<stop offset="1" stop-color="#87427D"/>
</linearGradient>
<linearGradient id="paint2_linear_415_327" x1="246.386" y1="0" x2="246.386" y2="585.513" gradientUnits="userSpaceOnUse">
<stop stop-color="#4B3A76"/>
<stop offset="1" stop-color="#413071"/>
</linearGradient>
</defs>
</svg>
