<svg width="240" height="360" viewBox="0 0 240 360" fill="none" xmlns="http://www.w3.org/2000/svg">
<path d="M150 154H210C215.523 154 220 158.477 220 164V220C220 225.523 215.523 230 210 230C187.372 237.753 175.451 238.98 150 230C144.477 230 140 225.523 140 220V164C140 158.477 144.477 154 150 154Z" fill="#C4C4C4"/>
<path fill-rule="evenodd" clip-rule="evenodd" d="M10 0H230C235.523 0 240 4.47715 240 10V117C240 130 240 130 235 130C230 130 226.5 117 210 117H150C133.431 117 120 130.431 120 147V350C120 355.5 115.5 360 110 360H10C4.47716 360 0 355.523 0 350V10C0 4.47716 4.47715 0 10 0ZM155 20H85C82.2386 20 80 22.2386 80 25V31C80 33.7614 82.2386 36 85 36H155C157.761 36 160 33.7614 160 31V25C160 22.2386 157.761 20 155 20Z" fill="#C4C4C4"/>
<path d="M160 262.48C160 261.11 161.119 260 162.5 260H197.5C198.881 260 200 261.11 200 262.48V269.425C200 270.794 198.881 271.905 197.5 271.905H162.5C161.119 271.905 160 270.794 160 269.425V262.48Z" fill="#C4C4C4"/>
<path d="M160 281.528C160 280.158 161.119 279.048 162.5 279.048H197.5C198.881 279.048 200 280.158 200 281.528V288.472C200 289.842 198.881 290.952 197.5 290.952H162.5C161.119 290.952 160 289.842 160 288.472V281.528Z" fill="#C4C4C4"/>
<path d="M160 300.575C160 299.206 161.119 298.095 162.5 298.095H173.5C174.881 298.095 176 299.206 176 300.575V307.52C176 308.89 174.881 310 173.5 310H162.5C161.119 310 160 308.89 160 307.52V300.575Z" fill="#C4C4C4"/>
<path d="M67 28C67 32.4183 63.6421 36 59.5 36C55.3579 36 52 32.4183 52 28C52 23.5817 55.3579 20 59.5 20C63.6421 20 67 23.5817 67 28Z" fill="white"/>
<path d="M160 169C160 166.239 162.239 164 165 164H195C197.761 164 200 166.239 200 169V171C200 173.761 197.761 176 195 176H165C162.239 176 160 173.761 160 171V169Z" fill="white"/>
</svg>
