<svg width="240" height="360" viewBox="0 0 240 360" fill="none" xmlns="http://www.w3.org/2000/svg">
<path d="M140.41 180.394C140.186 174.721 144.725 170 150.403 170H209.597C215.275 170 219.814 174.721 219.59 180.394L217.32 237.904C217.133 242.624 213.672 246.585 209.004 247.313C186.999 250.745 172.488 251.231 150.725 247.455C146.18 246.666 142.872 242.756 142.69 238.147L140.41 180.394Z" fill="#C4C4C4"/>
<path fill-rule="evenodd" clip-rule="evenodd" d="M10 0H230C235.523 0 240 4.47715 240 10V145C240 165.5 226.5 145 210 145H150C133.431 145 120 158.431 120 175V350C120 355.5 115.5 360 110 360H10C4.47716 360 0 355.523 0 350V10C0 4.47716 4.47715 0 10 0ZM155 20H85C82.2386 20 80 22.2386 80 25V31C80 33.7614 82.2386 36 85 36H155C157.761 36 160 33.7614 160 31V25C160 22.2386 157.761 20 155 20ZM57.5 36C61.6421 36 65 32.4183 65 28C65 23.5817 61.6421 20 57.5 20C53.3579 20 50 23.5817 50 28C50 32.4183 53.3579 36 57.5 36Z" fill="#C4C4C4"/>
</svg>
