<svg width="433" height="631" viewBox="0 0 433 631" fill="none" xmlns="http://www.w3.org/2000/svg">
<path d="M226.508 628.817C226.508 624.102 235.082 622.121 237.632 626.247C239.175 628.744 237.304 630.787 233.473 630.787C229.642 630.787 226.508 629.901 226.508 628.817ZM177.366 619.356C177.366 615.524 179.376 613.633 181.834 615.151C184.291 616.67 186.301 619.804 186.301 622.116C186.301 624.429 184.291 626.32 181.834 626.32C179.376 626.32 177.366 623.186 177.366 619.356ZM208.638 622.331C208.638 618.034 219.503 612.829 227.99 613.06C230.861 613.14 229.307 616.154 224.537 619.761C214.693 627.207 208.638 628.186 208.638 622.331ZM271.183 613.596C271.183 611.512 279.165 606.208 288.92 601.809C298.676 597.409 310.044 590.068 314.184 585.494C323.287 575.435 327.771 574.902 327.771 583.879C327.771 587.564 325.191 590.58 322.038 590.58C318.885 590.58 307.369 596.611 296.447 603.982C275.507 618.115 271.183 619.76 271.183 613.596ZM293.52 612.918C293.52 610.461 296.654 608.45 300.485 608.45C304.316 608.45 306.207 610.461 304.689 612.918C303.17 615.375 300.036 617.385 297.724 617.385C295.412 617.385 293.52 615.375 293.52 612.918ZM327.315 613.383C325.956 611.183 327.848 608.23 331.519 606.822C335.574 605.266 338.195 606.822 338.195 610.821C338.195 618.047 331.214 619.691 327.315 613.383ZM184.644 609.381C183.443 607.437 189.356 606.652 197.783 607.636C206.211 608.62 213.106 610.21 213.106 611.169C213.106 614.532 186.806 612.879 184.644 609.381ZM250.816 606.071C255.586 602.464 261.336 599.513 263.594 599.513C269.253 599.513 311.39 571.912 311.39 568.205C311.39 566.556 316.416 562.917 322.559 560.118C328.701 557.32 333.727 555.976 333.727 557.133C333.727 560.95 314.319 581.642 310.739 581.642C308.811 581.642 297.822 587.61 286.321 594.904C274.819 602.199 263.831 607.192 261.903 606.001C259.975 604.81 257.135 605.877 255.592 608.374C254.048 610.872 250.391 612.851 247.465 612.773C244.539 612.698 246.047 609.679 250.816 606.071ZM167.314 605.368C163.014 604.244 159.496 601.65 159.496 599.603C159.496 597.556 163.517 596.933 168.431 598.218C173.345 599.503 177.366 602.33 177.366 604.501C177.366 606.672 176.863 608.214 176.249 607.929C175.635 607.646 171.614 606.491 167.314 605.368ZM222.041 603.98C222.041 601.523 224.051 599.513 226.508 599.513C228.965 599.513 230.976 601.523 230.976 603.98C230.976 606.437 228.965 608.447 226.508 608.447C224.051 608.447 222.041 606.437 222.041 603.98ZM347.13 604.103C347.13 598.047 355.069 594.286 357.964 598.971C359.348 601.211 357.477 604.196 353.805 605.605C350.134 607.014 347.13 606.338 347.13 604.103ZM234.101 597.991C232.632 594.161 226.42 592.563 216.87 593.557C205.787 594.711 204.179 594.145 210.633 591.362C218.971 587.766 218.924 587.505 209.516 585.045C202.873 583.307 199.703 584.492 199.703 588.711C199.703 597.452 177.948 594.98 175.069 585.911C172.594 578.111 128.224 553.264 128.224 559.678C128.224 561.83 136.129 567.624 145.791 572.553C163.451 581.562 172.804 590.577 164.491 590.577C162.034 590.577 158.781 588.566 157.262 586.109C155.744 583.652 150.978 581.642 146.673 581.642C142.367 581.642 134.945 578.124 130.18 573.824C125.414 569.524 113.978 560.375 104.766 553.493C95.554 546.611 88.0168 538.864 88.0168 536.277C88.0168 533.691 95.2642 537.938 104.122 545.715C112.98 553.492 121.521 558.562 123.102 556.981C124.683 555.4 121.959 551.348 117.048 547.976C104.449 539.325 92.422 527.129 87.4684 517.981C80.1901 504.54 91.4064 509.061 102.402 524.001C108.004 531.613 121.634 543.016 132.691 549.342C143.748 555.668 155.511 562.922 158.83 565.463C162.149 568.003 167.558 570.477 170.849 570.96C174.141 571.442 184.908 572.968 194.777 574.348C212.506 576.828 230.524 584.649 236.06 592.266C240.106 597.833 249.621 590.979 245.994 585.111C244.203 582.213 245.077 581.547 248.167 583.457C251.859 585.739 252.012 589.128 248.7 595.315C243.3 605.406 237.364 606.494 234.101 597.991H234.101ZM190.639 581.467C180.123 574.818 174.792 576.541 184.323 583.511C189.089 586.996 193.938 588.896 195.1 587.735C196.261 586.574 194.254 583.754 190.639 581.467ZM143.672 594.74C142.05 592.115 137.806 591.087 134.241 592.455C130.677 593.823 128.899 593.1 130.291 590.848C131.682 588.596 128.573 585.404 123.38 583.756C114.337 580.886 96.9517 566.246 96.9517 561.501C96.9517 558.723 114.581 568.53 122.368 575.64C125.479 578.481 134.101 583.495 141.527 586.782C148.953 590.069 155.029 594.278 155.029 596.135C155.029 601.187 147.05 600.206 143.672 594.74ZM262.163 588.446C266.77 582.895 266.639 581.642 261.455 581.642C257.96 581.642 252.736 579.278 249.848 576.39C245.823 572.365 247.727 569.233 257.997 562.987C273.366 553.641 275.65 553.154 275.65 559.22C275.65 561.63 270.624 564.864 264.482 566.406C258.339 567.947 253.313 571.001 253.313 573.192C253.313 580.816 264.074 577.097 276.523 565.17C283.414 558.568 289.053 555.385 289.053 558.097C289.053 560.808 283.524 567.152 276.767 572.193C270.01 577.235 266.568 581.423 269.118 581.501C271.668 581.576 280.714 575.473 289.221 567.934C297.728 560.394 302.315 555.402 299.413 556.838C292.799 560.114 287.255 552.008 293.479 548.162C300.809 543.631 311.142 520.964 313.96 503.233C315.918 490.911 315.197 487.706 311.045 490.273C306.859 492.86 306.223 489.473 308.41 476.235C309.995 466.638 311.314 454.264 311.341 448.735C311.367 443.207 313.536 438.683 316.158 438.683C318.894 438.683 319.718 442.492 318.091 447.618C316.324 453.185 317.288 456.553 320.649 456.553C327.296 456.553 323.357 408.656 316.115 401.414C313.516 398.815 311.39 392.412 311.39 387.184C311.39 377.431 295.776 335.896 278.688 300.192C266.196 274.091 239.356 246.7 223.444 243.815C191.61 238.042 158.556 259.126 143.574 294.761C134.126 317.231 135.005 370.889 145.084 386.995C146.73 389.624 148.43 394.1 148.862 396.941C149.294 399.783 156.387 411.211 164.624 422.336C177.506 439.738 181.473 442.336 193.002 440.926C200.373 440.024 208.595 439.151 211.272 438.985C216.201 438.68 226.508 419.882 226.508 411.196C226.508 408.595 220.533 412.862 213.229 420.681C200.231 434.596 188.685 435.908 193.675 422.904C195.079 419.246 193.666 416.346 190.481 416.346C187.34 416.346 181.094 413.02 176.601 408.952C171.779 404.589 168.431 403.658 168.431 406.681C168.431 409.498 172.452 414.314 177.366 417.383C182.28 420.452 186.301 424.604 186.301 426.608C186.301 428.614 182.082 427.3 176.925 423.688C165.798 415.894 154.028 394.775 157.595 389.003C161.529 382.638 168.343 389.057 165.505 396.436C163.791 400.901 165.071 402.238 169.452 400.557C173.017 399.189 178.513 401.177 181.665 404.974C189.934 414.938 217.078 414.233 216.82 404.06C216.711 399.76 218.543 386.928 220.891 375.544C226.919 346.313 211.168 305.056 193.855 304.728C191.868 304.69 191.484 306.67 193.002 309.127C194.521 311.584 193.658 313.594 191.085 313.594C188.512 313.594 185.121 321.636 183.549 331.464C181.977 341.293 178.819 349.334 176.531 349.334C174.243 349.334 173.528 347.462 174.942 345.175C176.355 342.888 175.436 339.733 172.899 338.165C170.361 336.597 169.769 332.94 171.583 330.039C176.594 322.023 177.065 313.594 172.503 313.594C170.264 313.594 168.431 317.615 168.431 322.529C168.431 327.444 166.261 331.464 163.609 331.464C157.897 331.464 162.881 303.248 169.002 300.927C171.176 300.103 172.056 297.976 170.959 296.2C169.861 294.424 173.463 287.327 178.962 280.43C190.604 265.831 210.683 261.913 225.234 271.402C240.883 281.607 246.936 278.919 235.564 266.815C227.063 257.766 222.29 256.219 209.097 258.235C188.435 261.393 173.939 270.822 164.653 287.144C160.588 294.289 155.509 300.148 153.365 300.164C151.221 300.18 151.706 297.494 154.443 294.197C157.18 290.899 158.378 287.16 157.106 285.888C154.008 282.791 189.287 251.15 196.366 250.677C199.43 250.473 206.804 249.778 212.752 249.134C222.812 248.045 230.182 253.095 259.37 281.075C266.745 288.145 282.481 318.782 290.738 342.148C293.271 349.313 292.69 349.739 286.921 344.951C283.179 341.846 280.118 336.278 280.118 332.578C280.118 324.01 253.869 277.855 248.996 277.855C241.122 277.855 240.858 290.463 248.689 292.51C257.036 294.693 273.99 327.23 282.372 357.152C283.92 362.68 286.999 367.204 289.213 367.204C291.428 367.204 292.082 364.188 290.668 360.503C289.254 356.817 290.104 353.802 292.558 353.802C296.63 353.802 302.263 368.272 304.731 385.073C305.272 388.76 307.285 397.603 309.204 404.727C311.705 414.011 311.247 416.785 307.586 414.523C304.777 412.787 301.204 403.395 299.646 393.653C298.088 383.912 295.189 374.937 293.204 373.71C286.836 369.775 290.568 391.287 298.879 406.43C308.676 424.281 309.201 441.511 300.221 450.491C296.536 454.176 293.52 460.881 293.52 465.389C293.52 471.387 291.123 472.96 284.585 471.25C278.18 469.575 275.65 471.111 275.65 476.683C275.65 483.407 276.65 483.627 283.078 478.321C289.448 473.062 290.175 473.143 288.181 478.891C286.903 482.576 282.353 485.278 278.07 484.896C273.752 484.511 267.083 489.776 263.099 496.718C254.757 511.255 234.246 518.87 208.917 516.835C170.907 513.782 122.365 463.436 116.335 420.813C114.98 411.235 115.43 410.763 119.498 417.498C122.106 421.818 123.007 427.346 121.501 429.784C119.994 432.222 120.388 434.218 122.376 434.22C124.364 434.223 131.557 444.136 138.36 456.249C157.453 490.244 180.157 505.876 213.353 507.884C239.642 509.474 241.254 508.942 255.93 493.83C264.319 485.191 271.183 474.119 271.183 469.225C271.183 462.451 267.67 464.943 256.474 479.66C244.251 495.726 238.848 499.235 224.51 500.422C215.021 501.207 202.578 500.679 196.861 499.241C183.638 495.922 157.173 472.793 140.86 450.299C125.242 428.764 124.173 418.324 139.398 436.027C145.538 443.167 150.561 450.453 150.561 452.219C150.561 458.246 180.277 487.893 183.294 484.876C184.948 483.222 186.301 484.124 186.301 486.879C186.301 494.143 216.389 498.838 223.757 492.722C227.104 489.944 233.443 489.053 237.843 490.741C243.336 492.849 244.831 492.173 242.613 488.585C238.789 482.397 223.432 481.581 221.296 487.452C219.286 492.978 186.814 481.411 177.826 471.968C171.152 464.956 171.425 464.848 181.833 470.37C199.548 479.768 217.507 480.335 226.944 471.795C232.363 466.89 235.443 466.068 235.443 469.526C235.443 472.509 237.453 473.708 239.911 472.19C242.368 470.671 244.378 467.418 244.378 464.961C244.378 462.504 242.368 461.736 239.911 463.254C235.101 466.227 233.677 459.809 238.153 455.333C244.037 449.448 252.415 463.153 248.008 471.455C240.457 485.678 247.591 484.626 256.075 470.265C260.529 462.724 266.756 456.553 269.912 456.553C273.068 456.553 275.65 454.543 275.65 452.086C275.65 449.629 277.796 447.618 280.419 447.618C283.154 447.618 283.978 451.428 282.351 456.553C280.792 461.468 281.502 465.488 283.929 465.488C289.786 465.488 295.639 440.362 294.335 420.813C292.954 400.1 290.086 392.842 284.617 396.223C281.94 397.878 280.136 393.017 280.163 384.221C280.22 365.651 263.863 318.421 252.457 304.219L243.84 293.491L250.992 309.127C254.926 317.727 259.818 327.844 261.862 331.611C266.17 339.548 269.739 356.468 273.26 385.656C275.38 403.223 274.513 406.667 267.513 408.497C259.143 410.686 257.52 416.043 257.353 442.034C257.302 450.02 255.248 456.553 252.789 456.553C250.33 456.553 249.753 454.232 251.506 451.395C253.577 448.044 252.72 447.457 249.057 449.721C244.77 452.371 244.337 450.665 247.25 442.593C252.038 429.325 250.531 367.102 245.294 361.866C243.103 359.674 242.247 363.646 243.327 371.002C244.377 378.159 243.399 385.152 241.152 386.54C238.906 387.929 237.044 383.643 237.016 377.017C236.989 370.392 235.525 357.432 233.767 348.217C230.126 329.135 233.584 325.993 239.911 342.633C242.246 348.776 247.222 353.802 250.969 353.802C256.153 353.802 257.78 359.073 257.78 375.875C257.78 388.016 259.865 399.238 262.413 400.813C266.691 403.456 265.534 376.798 260.26 351.217C257.703 338.815 244.774 313.612 232.403 296.916C224.063 285.661 223.379 283.116 229.304 285.39C234.009 287.195 235.815 286.539 234.041 283.668C229.879 276.934 196.077 272.468 187.183 277.477C181.208 280.841 182.676 281.664 194.103 281.355C210.929 280.9 229.342 297.523 244.139 326.528C254.192 346.234 254.98 349.334 249.936 349.334C248.079 349.334 243.8 343.1 240.427 335.48C235.858 325.158 233.32 323.165 230.47 327.662C227.352 332.582 226.534 332.459 226.047 326.997C225.719 323.311 225.732 318.657 226.074 316.654C226.419 314.651 222.462 307.061 217.283 299.787C209.676 289.105 204.989 286.756 192.904 287.569C184.674 288.124 178.99 290.273 180.271 292.346C181.553 294.42 180.171 299.043 177.202 302.621C170.389 310.831 173.075 310.822 188.954 302.584C200.303 296.696 202.259 296.808 208.484 303.701C220.782 317.318 227.556 337.546 229.377 366.087C230.65 386.06 229.605 394.009 225.705 394.009C221.574 394.009 221.506 395.263 225.424 399.18C229.341 403.097 232.136 403.074 236.946 399.084C242.086 394.818 243.678 395.807 245.296 404.271C246.395 410.023 245.775 418.612 243.916 423.357C240.948 430.936 240.477 430.626 240.048 420.816C239.567 409.836 239.454 409.874 233.328 423.05C229.901 430.421 225.297 439.03 223.098 442.182C218.537 448.715 177.402 455.022 177.293 449.205C177.161 442.143 151.856 416.546 148.239 419.815C146.27 421.594 145.884 420.895 147.381 418.262C148.878 415.629 147.009 407.587 143.229 400.392C134.251 383.305 132.383 374.833 130.531 342.789C127.644 292.853 155.542 248.743 196.604 238.321C212.079 234.393 218.278 235.053 234.881 242.397C245.777 247.217 255.722 250.131 256.98 248.873C258.238 247.615 258.43 246.082 257.406 245.468C236.028 232.641 223.8 228.715 205.226 228.715C185.686 228.715 180.659 230.855 162.357 246.965C148.238 259.393 141.625 262.97 141.625 258.179C141.625 254.31 152.675 243.807 166.18 234.84C189.322 219.474 192.279 218.677 217.57 220.97C239.195 222.931 245.177 222.024 248.381 216.298C251.981 209.865 253.496 209.939 264.391 217.077C271.009 221.414 277.51 223.876 278.836 222.549C282.248 219.137 306.921 232.504 306.921 237.765C306.921 244.054 299.065 243.122 296.882 236.573C295.519 232.482 293.179 232.884 287.955 238.108C281.495 244.568 282.563 246.998 300.179 265.914C315.227 282.071 322.038 294.84 331.072 323.826C337.446 344.277 342.661 363.41 342.661 366.342C342.661 369.275 344.336 371.674 346.383 371.674C351.575 371.674 351.295 357.2 345.972 350.454C343.549 347.382 342.746 344.869 344.188 344.869C345.631 344.869 342.933 335.823 338.193 324.766C330.088 305.859 330.359 302.577 339.881 304.323C343.654 305.015 342.75 299.22 336.101 280.091C333.04 271.282 333.096 271.278 340.062 279.828C348.055 289.637 349.324 302.777 342.677 306.885C339.847 308.634 340.49 314.018 344.442 321.668C352.906 338.05 360.666 368.043 361.384 387.154C361.711 395.839 363.798 402.946 366.023 402.946C370.744 402.946 366.305 362.189 359.737 345.234C357.28 338.89 354.616 330.685 353.817 326.999C353.018 323.313 350.971 316.78 349.268 312.48C347.478 307.961 348.2 304.662 350.977 304.662C353.62 304.662 354.676 301.143 353.324 296.844C347.972 279.822 366.225 307.254 380.777 338.102C401.167 381.325 395.051 384.503 373.897 341.678C354.85 303.121 350.231 300.155 366.492 336.923C372.228 349.893 377.124 361.51 377.372 362.739C377.62 363.967 378.872 367.988 380.153 371.674C381.435 375.359 384.563 385.411 387.105 394.011C390.596 405.823 391.336 406.616 390.13 397.255C389.252 390.439 390.126 383.879 392.072 382.676C397.418 379.372 406.579 428.016 407.035 462.131C407.257 478.711 408.946 492.281 410.789 492.286C412.632 492.291 414.14 494.345 414.14 496.849C414.14 499.355 409.114 500.493 402.971 499.379C393.975 497.748 391.803 499.17 391.803 506.688C391.803 511.823 386.674 522.746 380.407 530.963C374.139 539.181 370.621 545.874 372.588 545.836C378.814 545.713 385.65 539.484 388.746 531.102C390.453 526.482 393.939 524.36 396.858 526.164C401.58 529.083 364.648 568.305 340.427 586.096C331.746 592.472 331.715 592.396 339.31 583.449C349.132 571.878 349.265 567.702 339.694 571.375C331.531 574.508 333.925 568.092 346.291 553.695C349.997 549.381 351.681 544.501 350.033 542.853C348.384 541.204 343.915 543.73 340.1 548.465C332.37 558.059 332.878 555.959 344.438 530.513C354.333 508.73 357 498.596 357.728 480.01C358.041 472.024 360.085 465.49 362.27 465.49C368.02 465.49 362.187 507.405 354.319 522.62C348.269 534.321 348.352 536.29 355.197 543.238C362.309 550.456 362.294 551.267 354.946 556.722C345.357 563.84 344.931 568.242 353.829 568.242C357.515 568.242 360.531 565.394 360.531 561.912C360.531 558.432 363.043 554.411 366.115 552.978C370.544 550.911 370.554 549.836 366.16 547.781C362.203 545.93 363.823 540.992 371.828 530.496C378.934 521.18 382.033 512.726 380.297 507.399C378.038 500.469 378.403 500.171 382.378 505.697C386.545 511.49 387.208 511.338 387.267 504.58C387.303 500.281 385.325 496.763 382.868 496.763C380.411 496.763 378.4 494.94 378.4 492.713C378.4 490.486 381.918 489.193 386.218 489.839C390.518 490.484 391.448 490.133 388.285 489.06C380.161 486.302 382.246 425.283 390.464 425.283C393.657 425.283 396.27 422.1 396.27 418.209C396.27 414.319 393.757 412.005 390.686 413.067C387.594 414.135 382.628 408.817 379.56 401.153C374.149 387.638 374.074 387.786 376.371 407.413C378.654 426.911 378.522 427.18 371.989 416.348C365.479 405.553 365.309 405.926 366.917 427.517C369.259 458.956 370.158 460.868 374.276 443.153C376.523 433.486 377.075 445.423 375.722 474.425C373.891 513.662 372.065 522.794 364.553 530.268L355.573 539.204L360.717 525.801C369.345 503.324 373.306 464.969 367.24 462.641C364.321 461.521 361.556 451.15 361.096 439.593C360.635 428.037 359.571 415.566 358.73 411.881C357.889 408.195 355.689 398.646 353.84 390.66C351.991 382.675 348.824 376.141 346.802 376.141C344.78 376.141 345.178 382.031 347.688 389.228C350.197 396.426 351.569 407.986 350.736 414.916C349.621 424.194 347.184 418.855 341.494 394.668C337.243 376.602 334.881 360.017 336.243 357.812C337.606 355.607 336.592 353.804 333.989 353.804C331.387 353.804 329.258 346.886 329.258 338.431C329.258 329.977 327.471 321.954 325.286 320.604C323.101 319.253 319.949 312.715 318.283 306.075C314.352 290.414 275.281 241.354 260.395 233.387C243.91 224.565 241.073 230.726 257.226 240.268C264.634 244.644 269.681 249.866 268.441 251.872C267.201 253.878 269.321 255.52 273.151 255.52C276.982 255.52 280.133 257.027 280.155 258.87C280.177 260.713 286.71 269.297 294.674 277.947C302.638 286.596 309.939 296.648 310.897 300.284C311.855 303.92 316.012 319.051 320.135 333.907C324.258 348.764 326.886 363.155 325.975 365.887C325.064 368.619 326.436 372.163 329.022 373.762C331.609 375.36 333.726 378.806 333.726 381.419C333.726 384.415 331.25 384.116 327.024 380.608C323.339 377.55 320.323 371.907 320.323 368.07C320.323 364.232 315.99 351.913 310.693 340.695C305.397 329.477 299.325 316.277 297.2 311.363C293.587 303.008 293.704 302.961 299.012 310.633C314.976 333.712 315.623 334.292 312.306 322.532C310.573 316.389 306.678 307.342 303.652 302.428C299.125 295.078 297.416 294.61 294.014 299.789C289.027 307.381 293.04 320.633 312.046 359.328C314.141 363.594 315.856 370.555 315.856 374.796C315.856 379.037 320.891 386.603 327.046 391.609C334.991 398.071 339.054 406.867 341.056 421.932C342.798 435.05 342.159 443.153 339.382 443.153C336.911 443.153 334.903 439.635 334.92 435.335C335.011 412.073 333.024 402.882 326.493 396.351C322.514 392.372 318.049 390.328 316.57 391.807C315.091 393.286 316.669 396.22 320.077 398.326C328.421 403.483 329.709 463.793 321.44 462.14C318.369 461.525 315.856 463.033 315.856 465.49C315.856 467.947 317.866 469.958 320.323 469.958C322.78 469.958 324.791 474.172 324.791 479.322C324.791 492.007 311.436 537.8 305.625 545.04C303.049 548.25 302.789 550.26 305.048 549.507C309.117 548.15 311.388 551.391 311.388 558.549C311.388 562.932 277.136 587.74 264.965 592.173C257.795 594.785 257.37 594.221 262.161 588.448L262.163 588.446ZM400.015 475.54C399.307 471.24 400.2 465.378 401.999 462.512C403.799 459.648 403.374 452.315 401.056 446.219C398.739 440.122 398.054 433.923 399.535 432.441C401.016 430.96 399.883 429.748 397.016 429.748C390.615 429.748 390.072 446.021 396.345 449.897C398.842 451.44 399.708 454.607 398.27 456.935C396.831 459.262 393.522 459.848 390.916 458.238C388.067 456.477 387.298 457.783 388.988 461.516C390.534 464.93 393.039 471.24 394.556 475.54C396.073 479.84 398.211 483.358 399.307 483.358C400.404 483.358 400.722 479.84 400.015 475.54ZM295.806 289.432C298.515 286.939 297.008 286.527 291.906 288.365C285.732 290.59 284.243 289.66 286.125 284.756C287.608 280.892 282.955 272.447 274.909 264.402C257.569 247.061 253.39 250.219 267.837 269.746C273.865 277.893 280.207 288.523 281.931 293.369C283.687 298.304 286.456 300.269 288.228 297.836C289.967 295.448 293.377 291.666 295.806 289.432ZM287.448 233.183C288.621 233.183 288.454 231.361 287.078 229.135C285.702 226.909 280.784 226.079 276.15 227.291C271.515 228.502 266.373 227.306 264.722 224.637C263.071 221.966 259.326 219.826 256.4 219.88C253.473 219.935 256.105 223.92 262.248 228.736C268.391 233.552 276.094 236.522 279.366 235.337C282.638 234.153 286.275 233.183 287.448 233.183H287.448ZM224.274 577.177C222.756 574.72 225.653 572.71 230.712 572.71C235.771 572.71 239.911 574.72 239.911 577.177C239.911 579.635 237.014 581.645 233.473 581.645C229.932 581.645 225.793 579.635 224.274 577.177ZM364.915 575.046C368.02 571.304 373.33 568.243 376.715 568.243C380.1 568.243 382.367 566.451 381.752 564.262C380.59 560.118 399.784 541.438 405.204 541.438C410.721 541.438 376.439 575.57 367.718 578.76C360.548 581.382 360.123 580.82 364.915 575.046ZM201.764 567.962C197.633 561.279 198.983 560.726 225.391 558.304C250.735 555.979 254.613 557.405 238.794 563.232C217.851 570.946 204.65 572.633 201.764 567.962ZM174.015 563.636C168.487 561.414 163.964 558.526 163.964 557.218C163.964 552.311 180.452 555.087 188.798 561.4C198.919 569.055 190.62 570.31 174.015 563.636ZM146.053 548.09C140.025 540.826 144.752 539.309 154.389 545.416C158.071 547.748 158.708 550.333 156.012 551.999C153.571 553.508 149.089 551.747 146.053 548.09ZM175.088 548.411C167.741 545.314 155.036 537.14 146.855 530.244C137.916 522.711 132.333 520.214 132.865 523.988C133.352 527.443 133.512 534.034 133.221 538.634C132.776 545.665 131.589 546.084 125.779 541.263C120.622 536.983 120.23 534.682 124.235 532.206C127.996 529.883 125.856 525.414 117.093 517.293C110.212 510.916 106.026 505.698 107.792 505.698C109.558 505.698 106.653 500.169 101.337 493.413C93.2123 483.084 79.0817 455.082 79.0817 449.31C79.0817 448.381 81.0538 447.621 83.464 447.621C85.8743 447.621 89.1438 452.791 90.7297 459.109C92.3155 465.428 100.685 481.008 109.328 493.732C128.78 522.37 127.676 521.138 130.947 517.867C132.444 516.37 127.216 505.583 119.33 493.897C101.104 466.892 87.612 434.219 94.6859 434.219C96.6769 434.219 107.456 457.574 110.15 467.725C110.803 470.182 115.136 477.529 119.78 484.051C124.424 490.573 128.224 497.25 128.224 498.889C128.224 504.524 141.561 515.2 145.534 512.745C147.721 511.393 154.588 514.281 160.792 519.161C173.028 528.786 181.833 530.641 181.833 523.596C181.833 518.607 197.597 519.938 202.939 525.378C204.845 527.321 202.384 528.243 197.469 527.429C192.555 526.615 188.535 527.926 188.535 530.343C188.535 535.035 190.091 535.483 210.872 536.769C222.547 537.491 223.123 538.094 215.339 541.438C207.852 544.656 208.756 545.328 220.924 545.591C228.909 545.768 235.443 548.075 235.443 550.728C235.443 556.423 207.231 551.464 204.915 545.362C204.096 543.204 199.07 541.469 193.747 541.506C186.613 541.56 185.662 542.585 190.128 545.416C200.57 552.032 189.098 554.317 175.088 548.411H175.088ZM183.984 541.573C186.245 537.915 178.023 532.903 148.328 519.839C145.87 518.759 148.676 523.115 154.561 529.519C160.447 535.923 166.842 540.186 168.772 538.993C170.702 537.8 173.544 538.87 175.087 541.365C178.591 547.034 180.58 547.081 183.984 541.574V541.573ZM265.759 543.093C273.656 536.913 280.118 528.85 280.118 525.177C280.118 520.712 282.857 519.367 288.381 521.121C294.785 523.154 297.698 520.457 301.327 509.137C305.159 497.184 306.093 496.397 306.466 504.804C306.717 510.454 304.113 520.51 300.679 527.151C292.989 542.022 275.65 558.406 275.65 550.802C275.65 547.581 273.383 546.795 270.066 548.867C256.145 557.564 252.873 553.177 265.759 543.093ZM289.2 534.737C295.262 526.472 295.167 526.262 287.936 531.933C283.636 535.305 280.118 540.164 280.118 542.729C280.118 545.295 280.687 546.557 281.382 545.533C282.077 544.509 285.595 539.651 289.2 534.737ZM318.41 543.353C316.695 536.517 317.423 529.151 320.078 526.496C322.671 523.903 324.823 516.654 324.861 510.389C324.897 504.123 326.878 495.981 329.26 492.296C336.702 480.78 334.537 510.741 326.864 525.455C321.444 535.848 321.214 539.226 325.737 542.022C329.915 544.604 330.101 546.852 326.438 550.514C322.776 554.176 320.651 552.281 318.41 543.353ZM239.911 545.905C239.911 543.448 237.326 541.438 234.167 541.438C227.368 541.438 226.311 523.879 233.05 522.888C235.595 522.513 239.687 521.917 242.144 521.561C252.244 520.102 266.715 507.494 266.715 500.156C266.715 491.109 272.359 490.22 285.418 497.209C292.114 500.792 293.772 500.785 291.546 497.155C288.272 491.858 297.058 461.682 304.025 454.294C306.727 451.429 307.313 452.468 305.66 457.193C304.242 461.244 300.64 476.974 297.654 492.15C294.641 507.466 290.775 517.392 288.964 514.462C286.469 510.425 284.94 510.418 282.458 514.409C280.674 517.296 276.622 518.663 273.455 517.448C270.287 516.232 263.241 519.388 257.797 524.46C250.378 531.372 247.039 532.289 244.463 528.122C242.022 524.173 240.142 523.995 237.972 527.507C236.291 530.229 236.617 532.454 238.696 532.454C240.775 532.454 242.779 536.474 243.15 541.389C243.52 546.303 242.942 550.324 241.867 550.324C240.791 550.324 239.911 548.314 239.911 545.856V545.905ZM281.744 500.248C280.078 497.552 277.493 498.189 275.16 501.87C269.054 511.507 270.571 516.235 277.835 510.206C281.493 507.17 283.252 502.689 281.744 500.248ZM248.845 543.175C248.845 539.878 267.977 523.91 272.159 523.717C273.925 523.637 274.317 526.311 273.031 529.664C270.69 535.762 248.845 547.966 248.845 543.175ZM210.872 528.036C209.353 525.579 210.121 523.568 212.578 523.568C215.036 523.568 218.288 525.579 219.807 528.036C221.326 530.493 220.558 532.503 218.1 532.503C215.643 532.503 212.391 530.493 210.872 528.036ZM333.727 528.566C333.727 526.108 335.738 522.856 338.195 521.337C340.652 519.819 342.662 520.586 342.662 523.044C342.662 525.501 340.652 528.753 338.195 530.272C335.738 531.79 333.727 531.023 333.727 528.566ZM74.6144 521.073C74.6144 517.243 76.6248 515.351 79.0819 516.87C81.539 518.388 83.5493 521.522 83.5493 523.834C83.5493 526.147 81.539 528.039 79.0819 528.039C76.6248 528.039 74.6144 524.904 74.6144 521.073ZM103.045 517.268C65.9811 467.238 57.2814 452.091 65.6101 452.091C67.8748 452.091 73.2354 459.63 77.5226 468.844C81.8098 478.058 86.4389 486.602 87.8095 487.831C95.4793 494.706 115.391 524.491 113.548 526.333C112.352 527.53 107.625 523.45 103.045 517.268ZM410.027 521.709C409.833 517 410.889 514.361 412.373 515.846C413.858 517.331 414.016 521.184 412.726 524.408C411.3 527.972 410.241 526.914 410.027 521.709H410.027ZM164.005 512.452C160.968 508.793 156.701 506.901 154.523 508.247C152.344 509.594 150.561 507.562 150.561 503.731C150.561 494.598 151.361 494.807 166.619 507.929C173.759 514.069 177.333 519.095 174.562 519.098C171.792 519.101 167.041 516.11 164.005 512.452ZM396.272 517.417C396.272 516.489 399.333 513.189 403.075 510.084C408.764 505.362 409.417 505.639 407.065 511.771C404.662 518.033 396.272 522.422 396.272 517.417ZM339.804 506.818C345.703 485.967 347.92 451.076 343.16 454.017C340.429 455.705 338.195 463.117 338.195 470.488C338.195 477.859 336.574 482.889 334.593 481.664C328.485 477.89 334.108 447.624 340.917 447.624C344.334 447.624 347.13 443.603 347.13 438.689C347.13 433.775 348.785 429.754 350.808 429.754C354.391 429.754 353.686 467.718 349.77 485.597C348.694 490.512 347.659 499.055 347.471 504.584C347.283 510.113 344.984 514.636 342.361 514.636C339.738 514.636 338.588 511.118 339.804 506.818ZM62.7537 503.275C61.2987 499.482 61.1064 495.383 62.3265 494.162C63.5466 492.942 65.6171 496.045 66.9277 501.056C69.7116 511.702 66.6185 513.346 62.7537 503.275H62.7537ZM77.5927 502.722C75.9547 501.085 74.6144 497.667 74.6144 495.128C74.6144 492.329 76.6952 492.592 79.9009 495.798C82.8085 498.706 84.1487 502.123 82.8792 503.393C81.6097 504.662 79.2308 504.361 77.5927 502.722ZM122.521 473.534C115.829 463.214 110.354 451.487 110.354 447.474C110.354 443.462 108.956 438.78 107.247 437.07C105.537 435.361 103.666 430.743 103.089 426.807C101.443 415.596 107.628 425.303 119.199 452.091C125.037 465.605 133.699 480.18 138.448 484.48C144.519 489.976 145.243 492.298 140.886 492.298C137.477 492.298 129.213 483.855 122.521 473.534ZM63.4458 478.896C61.9272 476.439 62.8137 474.429 65.4158 474.429C68.0179 474.429 70.1469 476.439 70.1469 478.896C70.1469 481.353 69.2604 483.364 68.1769 483.364C67.0933 483.364 64.9643 481.353 63.4458 478.896ZM414.142 476.926C414.142 469.079 416.822 467.924 420.652 474.12C422.066 476.408 421.179 479.542 418.682 481.085C416.185 482.628 414.142 480.758 414.142 476.926ZM50.2341 470.27C48.8205 467.983 49.7071 464.848 52.2042 463.305C54.7014 461.761 56.7446 463.632 56.7446 467.464C56.7446 475.311 54.0638 476.466 50.2341 470.27ZM186.4 464.569C160.996 454.817 150.548 444.973 134.231 415.411C128.907 405.765 123.296 400.079 121.682 402.692C116.744 410.682 111.5 407.961 109.261 396.248C108.086 390.105 108.857 385.079 110.974 385.079C113.09 385.079 114.822 388.095 114.822 391.781C114.822 395.466 116.832 398.482 119.289 398.482C124.951 398.482 124.994 388.916 119.399 374.202C117.003 367.899 111.939 362.742 108.146 362.742C102.87 362.742 101.956 359.853 104.259 350.456C105.914 343.7 108.968 337.501 111.045 336.682C117.165 334.269 115.361 327.002 108.641 327.002C102.168 327.002 97.116 340.102 97.0125 357.158C96.9767 362.686 94.9537 367.21 92.5121 367.21C90.0704 367.21 88.7439 363.691 89.5643 359.391C96.7019 321.983 97.8862 319.148 105.541 321.15C110.036 322.326 113.359 320.687 113.396 317.277C113.499 307.746 133.425 264.458 137.709 264.458C143.67 264.458 142.387 271.668 135.392 277.473C129.689 282.205 120.888 314.122 124.461 317.113C125.302 317.817 122.974 320.3 119.289 322.63C115.459 325.051 114.827 326.895 117.814 326.934C120.822 326.977 122.826 333.162 122.535 341.522C120.549 398.723 155.606 452.962 199.785 461.041C209.568 462.83 217.645 463.057 217.734 461.544C218.114 455.027 239.022 433.638 241.342 437.393C242.749 439.669 238.9 446.923 232.789 453.513C226.679 460.103 223.268 465.526 225.21 465.563C227.153 465.617 225.726 467.58 222.04 469.962C213.597 475.419 215.354 475.684 186.399 464.57L186.4 464.569ZM113.313 343.753C112.074 340.682 111.059 343.195 111.059 349.337C111.059 355.48 112.074 357.993 113.313 354.922C114.552 351.851 114.552 346.825 113.313 343.753ZM43.4672 445.717C37.8536 430.952 37.5648 420.817 42.7577 420.817C46.8483 420.817 53.4176 452.438 50.0307 455.825C48.9466 456.909 45.993 452.36 43.4672 445.717ZM265.413 448.812C261.325 441.521 267.89 411.882 273.593 411.882C277.893 411.882 278.553 415.216 276.026 424.168C274.119 430.925 273.36 438.782 274.34 441.628C276.376 447.542 268.331 454.016 265.413 448.812ZM416.583 446.505C413.948 438.074 407.769 406.089 407.306 398.48C406.629 387.347 391.246 343.989 380.019 321.566C374.216 309.977 360.421 290.309 349.364 277.859C338.307 265.409 329.337 252.777 329.431 249.787C329.526 246.798 338.531 254.404 349.443 266.689C360.355 278.975 369.324 286.632 369.375 283.706C369.425 280.78 367.457 277.143 364.999 275.624C362.542 274.106 360.532 270.725 360.532 268.113C360.532 265.117 363.007 265.416 367.233 268.923C370.919 271.982 373.934 277.373 373.934 280.903C373.934 284.432 375.62 286.278 377.681 285.005C379.742 283.731 385.902 290.649 391.37 300.377C396.837 310.106 402.853 318.065 404.738 318.065C406.622 318.065 410.817 323.023 414.06 329.082C417.303 335.14 421.974 338.85 424.44 337.326C426.906 335.802 427.712 336.517 426.229 338.916C424.747 341.315 426.327 348.661 429.741 355.242C433.156 361.823 433.995 367.207 431.606 367.207C429.218 367.207 426.012 363.689 424.483 359.389C420.704 348.762 373.079 286.159 370.634 288.605C369.559 289.679 372.59 296.245 377.368 303.195C382.146 310.145 389.448 321.424 393.594 328.259C397.74 335.095 402.755 339.684 404.74 338.458C406.724 337.231 410.878 344.706 413.972 355.068C417.065 365.43 421.887 375.386 424.687 377.191C428.329 379.539 428.161 380.493 424.098 380.541C418.815 380.606 414.337 372.825 407.699 352.048C406.212 347.397 404.036 344.552 402.862 345.726C401.688 346.9 404.824 363.773 409.831 383.222C414.839 402.67 419.601 426.122 420.413 435.336C421.871 451.867 419.982 457.378 416.583 446.505ZM59.6014 444.522C58.0302 442.951 56.7753 437.477 56.813 432.358C56.8693 424.684 57.6535 424.227 61.2805 429.752C64.9251 435.304 66.1769 434.634 68.5783 425.851L71.477 415.248L77.3548 425.851C84.5118 438.76 84.9503 443.154 79.0819 443.154C76.6248 443.154 74.6144 440.02 74.6144 436.19C74.6144 432.359 72.5713 430.488 70.0741 432.031C67.5769 433.574 66.6045 436.569 67.9132 438.687C70.8289 443.404 63.5758 448.497 59.6014 444.522ZM282.111 429.363C280.46 426.691 281.244 422.371 283.853 419.762C287.201 416.415 288.385 417.844 287.874 424.618C287.051 435.548 286.311 436.158 282.111 429.363ZM87.675 428.635C85.8013 422.513 83.0464 407.703 82.2737 399.6C81.7468 394.073 80.3104 389.548 79.0819 389.546C77.8533 389.543 76.2339 373.459 75.4832 353.803C74.7324 334.147 75.7378 318.073 77.7169 318.083C79.6962 318.093 81.6954 331.997 82.1597 348.981C82.9041 376.218 87.7302 403.23 95.4434 423.33C96.7988 426.862 95.6824 429.752 92.9622 429.752C90.2422 429.752 87.863 429.249 87.675 428.635ZM64.9211 404.064C63.9308 399.764 64.4369 389.21 66.0457 380.61C67.6701 371.926 69.2322 369.195 69.5588 374.467C69.8823 379.688 71.4034 390.242 72.9391 397.921C75.8477 412.464 68.2042 418.32 64.9211 404.064ZM97.7732 400.732C94.9696 394.579 94.4086 389.545 96.5265 389.545C100.236 389.545 106.92 407.871 104.201 410.589C103.469 411.321 100.577 406.885 97.7732 400.732ZM37.6259 401.465C32.6479 388.808 33.4594 382.342 39.2937 388.177C41.9812 390.864 43.4296 396.795 42.5123 401.356C40.9036 409.354 40.7302 409.358 37.6259 401.463V401.465ZM52.8233 407.415C52.3373 406.186 50.8229 397.14 49.458 387.311C47.5772 373.768 48.2377 370.656 52.1859 374.458C55.0511 377.216 56.5655 386.263 55.5512 394.561C54.5369 402.859 53.3093 408.644 52.8233 407.415ZM21.3576 396.618C21.1637 391.909 22.2195 389.27 23.704 390.755C25.1885 392.239 25.3471 396.092 24.0569 399.317C22.6307 402.881 21.5721 401.823 21.3578 396.618H21.3576ZM179.922 393.116C175.608 386.958 174.712 382.25 177.524 380.512C179.992 378.987 181.469 372.856 180.805 366.889C179.914 358.866 181.549 356.361 187.081 357.274C191.196 357.953 196.03 356.135 197.823 353.233C199.877 349.91 199.163 349.145 195.895 351.164C187.803 356.165 184.433 341.072 190.93 328.933C198.522 314.747 201.678 315.223 209.688 331.761C219.561 352.146 215.22 402.947 203.606 402.947C201.17 402.947 200.318 401.099 201.714 398.84C204.492 394.345 192.639 380.61 185.982 380.61C179.283 380.61 181.229 389.593 188.535 392.397C192.22 393.811 195.236 396.763 195.236 398.958C195.236 406.257 186.899 403.077 179.922 393.116ZM207.619 353.707C204.706 323.384 199.694 318.34 193.265 339.258C190.827 347.189 191.644 348.721 197.177 346.598C202.346 344.614 204.171 346.758 204.171 354.816C204.171 369.4 200.06 372.67 191.938 364.548C183.984 356.594 180.511 358.563 184.44 368.802C186.022 372.924 192.193 376.142 198.516 376.142C209.341 376.142 209.692 375.278 207.619 353.707ZM421.587 399.969C419.949 398.331 418.609 394.913 418.609 392.374C418.609 389.575 420.69 389.839 423.896 393.044C426.803 395.952 428.143 399.37 426.874 400.639C425.604 401.909 423.225 401.607 421.587 399.969ZM92.4843 378.64C92.4843 370.792 95.165 369.637 98.9946 375.834C100.408 378.121 99.5218 381.255 97.0246 382.798C94.5274 384.342 92.4843 382.472 92.4843 378.64ZM34.4072 367.688C34.4072 359.355 36.265 354.426 38.8123 356C43.5068 358.902 42.6544 373.852 37.5007 379.005C35.7993 380.707 34.4072 375.614 34.4072 367.688ZM105.887 373.645C105.887 369.814 107.897 367.922 110.354 369.441C112.811 370.96 114.822 374.094 114.822 376.406C114.822 378.718 112.811 380.61 110.354 380.61C107.897 380.61 105.887 377.475 105.887 373.645ZM152.559 376.524C153.948 374.277 152.998 371.742 150.448 370.892C147.897 370.042 145.939 359.316 146.096 347.057C146.254 334.797 146.34 320.243 146.288 314.715C146.236 309.186 148.261 304.663 150.788 304.663C153.615 304.663 154.774 315.408 153.801 332.585C152.729 351.498 154.279 363.749 158.605 370.558C164.3 379.522 164.182 380.61 157.513 380.61C153.399 380.61 151.17 378.771 152.559 376.524H152.559ZM166.942 373.164C165.304 371.526 164.025 367.003 164.1 363.112C164.211 357.303 165.083 357.496 168.976 364.192C173.787 372.464 172.392 378.614 166.942 373.164ZM20.1751 369.356C18.513 367.694 18.3613 363.185 19.8383 359.337C21.7956 354.236 20.804 353.321 16.1798 355.962C11.2525 358.775 10.9958 358.328 15.0297 353.958C22.715 345.633 28.6496 350.075 25.7405 361.975C24.3417 367.696 21.8373 371.018 20.1751 369.356H20.1751ZM57.0973 365.346C56.9034 360.637 57.9592 357.998 59.4437 359.482C60.9282 360.967 61.0868 364.82 59.7966 368.045C58.3705 371.609 57.3118 370.55 57.0975 365.346H57.0973ZM63.0352 354.922C61.055 350.622 59.2373 338.428 58.9959 327.824C58.7318 316.232 55.969 306.907 52.0664 304.438C46.6804 301.031 46.9064 300.321 53.394 300.264C60.4147 300.202 63.2518 295.244 61.7411 285.676C61.4502 283.833 63.4375 282.326 66.1575 282.326C68.8774 282.326 69.874 285.528 68.3721 289.442C66.8702 293.356 64.4211 301.42 62.9297 307.362C60.6913 316.281 61.5648 317.649 67.936 315.205C74.7409 312.593 75.0065 313.453 70.1816 322.468C67.1718 328.092 65.8064 339.454 67.1472 347.717C69.8492 364.367 68.4853 366.757 63.0352 354.922ZM160.725 344.87C160.069 336.163 164.234 333.227 169.612 338.606C172.821 341.814 168.738 353.805 164.436 353.805C162.765 353.805 161.095 349.784 160.725 344.87ZM20.8431 333.702C19.6316 314.977 21.1656 303.069 25.3536 298.69C27.3205 296.633 27.9855 304.675 26.8312 316.56C24.1346 344.327 21.9375 350.616 20.8431 333.702ZM46.2704 334.291C44.4207 327.244 43.963 320.423 45.2533 319.132C48.8505 315.535 53.2479 329.923 51.3331 339.025C50.0801 344.981 48.7499 343.737 46.2704 334.291ZM85.7831 331.468C84.2645 329.011 85.151 327 87.7531 327C90.3552 327 92.4843 329.011 92.4843 331.468C92.4843 333.925 91.5977 335.935 90.5142 335.935C89.4307 335.935 87.3016 333.925 85.7831 331.468ZM3.13501 322.797C3.13501 320.484 5.14536 317.35 7.60247 315.832C10.0596 314.313 12.0699 316.205 12.0699 320.035C12.0699 323.866 10.0596 327 7.60247 327C5.14536 327 3.13501 325.109 3.13501 322.797ZM34.4072 313.334C34.4072 305.818 36.148 300.744 38.2756 302.059C41.8744 304.283 39.9112 327 36.1202 327C35.1781 327 34.4072 320.851 34.4072 313.334ZM78.6351 312.109C76.6075 298.592 78.5907 286.893 84.9783 274.729C93.4719 258.551 94.0643 255.521 88.7339 255.521C86.6712 255.521 82.3869 261.049 79.2132 267.806C75.9268 274.804 72.5794 277.707 71.437 274.55C68.4933 266.419 85.7023 246.058 91.0224 251.378C93.8079 254.164 97.4882 251.697 101.371 244.442C104.685 238.25 109.067 233.184 111.109 233.184C116.911 233.184 115.47 240.486 108.532 246.244C99.8278 253.468 87.6314 280.23 85.5508 296.67C83.9438 309.368 79.6589 318.934 78.6351 312.109ZM91.0084 302.429C98.8559 264.24 139.036 210.875 166.855 201.694C185.728 195.466 184.262 191.821 164.475 195.778C156.601 197.353 143.775 205.408 135.974 213.679C121.572 228.947 114.822 232.321 114.822 224.249C114.822 221.791 117.837 219.781 121.523 219.781C125.208 219.781 128.224 217.771 128.224 215.314C128.224 203.184 108.651 217.435 103.645 233.21C102.089 238.11 97.8663 242.118 94.2598 242.118C85.5571 242.118 91.4742 231.293 111.032 211.434C122.924 199.358 124.1 196.72 116.986 198.077C107.742 199.842 79.0398 237.91 67.4176 263.822C63.7167 272.073 59.653 277.788 58.3872 276.522C57.1214 275.257 59.0412 268.506 62.6535 261.52C66.2658 254.535 69.6737 246.809 70.2268 244.352C70.7798 241.895 76.0139 234.202 81.8583 227.257C87.7026 220.311 92.4843 212.09 92.4843 208.987C92.4843 205.884 97.0076 201.121 102.536 198.402C108.065 195.683 119.624 189.111 128.224 183.798C142.361 175.063 142.796 175.01 132.758 183.251C113.711 198.888 124.72 196.7 155.009 178.827C170.969 169.409 181.021 161.673 177.346 161.636C171.429 161.575 171.432 161.072 177.364 157.237C182.941 153.632 182.567 152.834 175.13 152.475C167.805 152.122 168.427 151.055 178.586 146.555C185.401 143.537 189.483 139.573 187.657 137.747C185.831 135.921 187.794 135.754 192.019 137.375C196.75 139.191 199.701 138.185 199.701 134.757C199.701 130.654 207.042 129.815 227.623 131.566C249.113 133.395 253.229 132.866 245.493 129.27C233.167 123.543 232.524 118.944 244.048 118.944C248.782 118.944 251.486 120.835 250.059 123.145C248.631 125.455 249.331 126.191 251.614 124.78C260.288 119.418 285.855 128.365 289.423 138.01C292.791 147.114 292.229 147.388 279.372 142.906C269.008 139.293 264.915 139.515 262.245 143.835C259.842 147.724 254.718 148.408 245.972 146.007C233.652 142.625 208.296 143.349 185.577 147.732C182.015 148.419 183.082 157.496 187.569 164.673C189.358 167.535 188.296 171 185.21 172.374C182.123 173.748 186.634 174.486 195.234 174.015C205.508 173.451 210.487 175.023 209.753 178.599C209.106 181.751 213.449 184.042 220.068 184.042C226.552 184.042 230.306 182.108 228.74 179.574C227.221 177.117 228.798 175.107 232.244 175.107C241.55 175.107 289.377 192.153 296.382 197.967C299.924 200.907 302.453 201.176 302.453 198.612C302.453 194.626 282.693 183.558 253.311 171.086C243.798 167.048 244.775 166.766 259.9 169.178C269.667 170.736 280.365 174.717 283.673 178.026C286.982 181.335 291.779 184.042 294.334 184.042C296.889 184.042 308.888 192.338 320.998 202.477C333.109 212.617 344.039 219.892 345.286 218.644C348.174 215.757 306.277 179.642 299.996 179.603C297.416 179.587 292.957 177.226 290.087 174.357C282.459 166.729 253.263 157.382 236.821 157.304C228.981 157.267 221.323 155.227 219.805 152.769C213.107 141.932 278.478 157.738 302.145 172.678C327.218 188.506 378.4 237.416 378.4 245.548C378.4 250.433 375.84 249.317 369.547 241.685C364.679 235.781 358.633 228.506 356.112 225.519C353.591 222.531 348.395 221.289 344.566 222.759C340.233 224.421 331.809 219.814 322.262 210.561C313.824 202.383 306.92 197.764 306.92 200.297C306.92 202.83 312.951 210.276 320.323 216.843C327.694 223.411 333.725 230.915 333.725 233.519C333.725 236.273 337.592 237.026 342.971 235.319C350.033 233.077 356.259 236.632 369.321 250.364C378.728 260.253 387.617 267.151 389.075 265.694C390.532 264.237 389.541 260.414 386.873 257.199C384.205 253.984 382.954 248.773 384.093 245.619C385.337 242.173 388.466 244.788 391.933 252.171C395.107 258.928 399.05 264.456 400.697 264.456C402.343 264.456 410.186 273.503 418.127 284.56C426.068 295.616 431.167 304.663 429.46 304.663C425.874 304.663 411.672 289.106 401.967 274.546C398.296 269.039 393.465 265.662 391.232 267.042C389 268.421 391.732 275.646 397.305 283.096C417.664 310.312 419.618 313.598 415.441 313.598C413.101 313.598 405.032 305.054 397.509 294.611C382.341 273.555 367.881 257.814 351.371 244.384L340.426 235.481L351.24 247.717C357.188 254.447 360.699 261.308 359.044 262.964C357.388 264.62 345.755 254.547 333.193 240.58C298.34 201.829 270.646 185.218 265.08 199.724C263.481 203.889 264.627 206.45 267.901 206.029C270.933 205.639 276.57 205.559 280.428 205.849C289.91 206.565 325.229 237.212 324.011 243.666C323.476 246.501 324.653 253.594 326.626 259.429C332.793 277.666 320.086 280.252 305.896 263.647C292.939 248.484 292.647 241.145 305.415 251.534C312.196 257.051 312.708 256.814 309.94 249.439C307.588 243.173 308.483 241.762 313.571 243.714C325.523 248.301 320.346 240.273 301.739 225.365C282.887 210.261 275.648 207.542 275.648 215.567C275.648 218.218 271.313 217.251 265.758 213.36C260.318 209.55 245.796 205.097 233.487 203.464C217.315 201.319 213.552 199.632 219.923 197.385C224.772 195.674 234.712 195.98 242.011 198.064C251.781 200.853 257.044 200.092 261.955 195.181C265.964 191.172 266.611 188.509 263.575 188.509C260.796 188.509 257.757 190.807 256.82 193.617C255.543 197.449 252.734 197.449 245.573 193.617C240.323 190.807 228.86 188.509 220.098 188.509C211.337 188.509 204.169 186.498 204.169 184.041C204.169 181.584 202.221 179.574 199.841 179.574C197.461 179.574 196.797 183.092 198.365 187.392C201.054 194.765 200.723 194.778 192.539 187.618C186.566 182.393 181.803 181.327 177.262 184.199C172.331 187.317 172.155 188.389 176.566 188.44C179.813 188.478 185.252 191.291 188.652 194.691C193.917 199.956 192.87 201.267 181.591 203.523C167.976 206.246 142.066 222.322 135.941 231.846C134.044 234.796 130.023 239.899 127.006 243.187C120.914 249.825 110.352 267.526 110.352 271.096C110.352 272.358 112.362 273.39 114.819 273.39C117.276 273.39 119.287 270.864 119.287 267.776C119.287 257.544 156.972 220.155 174.592 212.906C197.136 203.63 255.141 205.899 239.685 215.452C236.692 217.301 228.297 217.108 221.029 215.023C188.722 205.758 148.054 228.111 128.432 265.919C123.907 274.636 119.434 277.77 113.667 276.262C107.732 274.71 104.181 277.47 101.101 286.03C98.7399 292.592 94.883 301.982 92.5301 306.896C89.1585 313.938 88.8356 312.991 91.0061 302.429L91.0084 302.429ZM170.457 181.807C184.315 171.166 174.428 174.029 155.029 186.275C145.298 192.418 135.286 197.444 132.78 197.444C130.274 197.444 128.224 200.399 128.224 204.01C128.224 210.409 144.032 202.098 170.457 181.807ZM223.158 136.408C220.086 135.169 215.06 135.169 211.989 136.408C208.918 137.647 211.43 138.661 217.573 138.661C223.716 138.661 226.229 137.647 223.158 136.408ZM102.787 300.195C105.569 292.824 109.415 286.793 111.334 286.793C115.976 286.793 115.756 288.789 109.637 302.219C102.37 318.169 96.641 316.477 102.787 300.195ZM5.9869 293.494C7.40126 289.809 11.605 286.793 15.3286 286.793C20.8401 286.793 21.0649 288.039 16.5374 293.494C13.4786 297.18 9.27477 300.195 7.19566 300.195C5.11655 300.195 4.57259 297.18 5.9869 293.494ZM41.6663 282.472C44.4108 267.354 51.5667 251.069 57.4348 246.586C59.043 245.358 60.6988 242.342 61.1145 239.885C61.5299 237.428 66.8126 226.371 72.8533 215.314C80.9054 200.575 92.519 189.547 116.371 173.99C134.266 162.318 151.792 152.799 155.318 152.835C161.429 152.898 149.661 161.001 130.458 169.954C125.543 172.245 112.365 182.209 101.173 192.096C82.5366 208.559 74.4014 222.054 44.0846 286.793C39.2272 297.166 39.0548 296.858 41.6663 282.472ZM50.2341 291.569C48.8205 289.282 49.7071 286.148 52.2042 284.604C54.7014 283.061 56.7446 284.933 56.7446 288.763C56.7446 296.61 54.0638 297.766 50.2341 291.569ZM322.931 288.387C319.191 278.641 324.157 274.111 329.434 282.455C334.717 290.809 334.83 295.728 329.738 295.728C327.543 295.728 324.481 292.425 322.931 288.387H322.931ZM25.4723 283.727C25.4723 281.438 28.4239 275.663 32.0314 270.894C37.5418 263.608 38.6133 263.385 38.7326 269.493C38.8108 273.492 35.8592 279.267 32.1735 282.326C28.4879 285.384 25.4723 286.015 25.4723 283.727ZM12.0699 278.952C12.0699 276.495 15.0855 271.982 18.7711 268.923C22.5092 265.821 25.4723 265.337 25.4723 267.829C25.4723 270.286 22.4568 274.799 18.7711 277.858C15.033 280.961 12.0699 281.444 12.0699 278.952ZM3.13501 266.526C3.13501 258.554 15.2862 234.849 24.3554 225.128C27.4268 221.836 29.9398 216.371 29.9398 212.983C29.9398 209.595 33.4412 204.863 37.7206 202.468C42.0001 200.073 44.2236 196.836 42.6619 195.274C38.5975 191.21 17.9732 212.92 20.0318 219.096C20.9765 221.93 18.5664 224.249 14.6759 224.249C10.7855 224.249 7.60247 226.259 7.60247 228.716C7.60247 231.173 5.3535 233.184 2.60476 233.184C-4.87985 233.184 18.8264 202.957 48.4415 174.74C74.6205 149.797 78.7573 143.834 69.8833 143.834C67.2812 143.834 66.5866 146.155 68.3398 148.992C70.1813 151.971 69.5781 152.945 66.9116 151.297C64.3728 149.728 50.6642 161.289 36.448 176.989C20.0817 195.064 8.23238 204.626 4.14492 203.057C-1.22461 200.997 -1.05757 199.879 5.13782 196.412C9.23435 194.119 25.2492 179.455 40.7264 163.825C60.8601 143.492 70.2383 136.778 73.6871 140.226C77.136 143.675 80.5866 142.968 85.815 137.739C94.0306 129.524 96.9517 128.627 96.9517 134.321C96.9517 138.378 71.5377 163.76 52.2771 178.938C46.1343 183.779 42.5263 189.163 44.2592 190.903C48.2037 194.863 92.0092 157.022 92.2831 149.419C92.3939 146.347 97.2013 143.834 102.967 143.834C115.962 143.834 142.509 131.007 139.521 126.172C137.48 122.871 160.869 114.855 185.789 110.316C191.65 109.248 197.681 107.018 199.191 105.359C200.701 103.701 195.303 103.607 187.196 105.152C176.96 107.102 173.39 106.446 175.517 103.005C181.027 94.09 268.916 106.626 313.624 122.704C320.995 125.355 337.664 134.46 350.667 142.938C372.395 157.106 383.188 159.66 376.653 149.086C370.297 138.802 295.47 107.233 259.079 99.4825C237.48 94.8823 225.838 90.9595 233.209 90.7649C240.581 90.5707 259.679 93.4399 275.65 97.1415C291.621 100.843 307.202 104.152 310.273 104.494C313.344 104.836 315.857 106.792 315.857 108.84C315.857 110.887 318.37 112.575 321.442 112.59C324.513 112.606 332.898 115.679 340.074 119.422C347.251 123.164 354.8 124.548 356.851 122.498C358.901 120.448 352.527 115.217 342.686 110.875C332.844 106.533 324.792 101.409 324.792 99.4887C324.792 97.5679 334.844 100.807 347.13 106.687C359.415 112.566 369.467 119.428 369.467 121.935C369.467 124.441 367.595 125.335 365.308 123.922C363.021 122.508 359.887 123.395 358.343 125.892C356.8 128.389 357.359 130.432 359.585 130.432C365.233 130.432 382.869 146.226 382.869 151.283C382.869 153.575 380.495 157.824 377.594 160.725C373.539 164.78 369.148 163.666 358.607 155.904C329.714 134.63 273.953 114.368 233.989 110.622C222.547 109.549 211.158 107.418 208.678 105.886C206.199 104.354 204.171 105.229 204.171 107.831C204.171 110.433 201.155 112.562 197.47 112.562C193.784 112.562 190.768 114.573 190.768 117.03C190.768 122.239 191.556 122.253 216.058 117.508C231.102 114.594 234.192 115.093 232.261 120.124C230.949 123.543 226.605 126.024 222.608 125.638C199.302 123.387 181.834 126.398 181.834 132.666C181.834 141.319 175.54 141.232 168.274 132.477C164.166 127.527 161.191 126.95 157.713 130.429C154.234 133.908 154.681 136.391 159.301 139.246C164.218 142.285 162.632 143.962 152.562 146.371C123.199 153.395 51.4946 209.508 42.8597 232.219C36.7234 248.359 38.4374 254.607 45.5759 242.119C53.3321 228.551 54.2777 232.84 47.0348 248.737C43.2203 257.108 40.7866 258.687 38.0998 254.531C35.1712 250.001 33.5333 250.18 30.1827 255.392C27.8592 259.006 24.5572 260.563 22.8449 258.851C21.1326 257.138 22.2746 252.673 25.3827 248.928C28.4908 245.183 29.8021 242.119 28.2968 242.119C26.7914 242.119 29.0582 237.728 33.3341 232.362C45.9836 216.486 92.4843 169.511 92.4843 172.608C92.4843 174.176 94.9972 173.341 98.0686 170.753C111.589 159.357 138.11 143.835 144.058 143.835C150.516 143.835 153.625 134.958 147.211 134.836C137.407 134.65 84.6963 166.62 66.0832 184.042C43.9601 204.749 12.0699 250.804 12.0699 262.046C12.0699 265.539 10.0596 269.639 7.60247 271.157C5.14536 272.676 3.13501 270.592 3.13501 266.526V266.526ZM181.834 121.497C187.055 118.122 185.823 117.151 176.249 117.098C169.492 117.06 163.964 119.04 163.964 121.497C163.964 127.146 173.093 127.146 181.834 121.497ZM413.025 264.083C408.725 259.374 406.218 255.521 407.453 255.521C408.689 255.521 401.494 248.107 391.465 239.047C381.436 229.986 364.845 214.799 354.596 205.298C344.347 195.797 322.894 180.102 306.922 170.421C276.33 151.876 275.042 146.316 304.966 161.975C336.962 178.717 342.639 182.576 339.657 185.557C338.034 187.181 338.649 188.509 341.024 188.509C343.399 188.509 347.333 186.518 349.766 184.086C352.685 181.166 362.482 185.871 378.581 197.922C391.996 207.965 403.647 218.01 404.471 220.243C405.295 222.477 407.808 223.168 410.056 221.779C412.303 220.39 414.142 223.744 414.142 229.231V239.208L402.12 228.378C395.508 222.421 382.119 210.089 372.366 200.972C362.614 191.856 352.936 185.448 350.859 186.731C347.652 188.713 376.361 219.781 381.399 219.781C382.361 219.781 390.458 227.733 399.394 237.451C408.33 247.17 416.811 254.399 418.242 253.516C419.672 252.633 421.133 256.744 421.487 262.651C421.841 268.558 421.841 273.223 421.487 273.019C421.133 272.814 417.325 268.793 413.025 264.083ZM199.703 197.443C199.703 194.986 201.714 192.976 204.171 192.976C206.628 192.976 208.638 194.986 208.638 197.443C208.638 199.9 206.628 201.911 204.171 201.911C201.714 201.911 199.703 199.9 199.703 197.443ZM386.822 193.596C380.963 189.022 362.224 175.955 345.181 164.557C328.139 153.159 317.082 143.889 320.61 143.957C324.139 144.024 340.05 152.906 355.967 163.694C371.885 174.481 386.765 182.161 389.033 180.759C391.302 179.357 389.779 175.739 385.648 172.719C379.073 167.91 378.988 166.902 384.972 164.606C388.742 163.159 391.957 164.424 392.146 167.428C392.651 175.475 395.004 185.27 398.552 194.093C402.554 204.047 400.08 203.943 386.822 193.596ZM7.70602 181.59C7.57646 175.722 37.7594 144.079 58.7813 128.045C73.523 116.801 79.0836 107.959 71.2638 108.196C69.421 108.251 56.0019 119.292 41.4436 132.729C26.8853 146.167 14.2395 156.427 13.342 155.53C10.2159 152.404 44.8529 117.029 51.0399 117.029C54.4675 117.029 56.1188 115.163 54.7096 112.883C53.3004 110.603 56.1973 107.452 61.1472 105.881C66.0971 104.31 70.1469 101.15 70.1469 98.8583C70.1469 96.5668 72.8217 94.6917 76.091 94.6917C79.3602 94.6917 91.925 89.4882 104.013 83.1282C116.669 76.4692 121.148 72.6233 114.573 74.0606C91.6505 79.0713 62.9922 94.6247 44.0844 112.316C33.4357 122.279 24.1016 130.431 23.342 130.431C22.5823 130.431 20.6343 126.975 19.013 122.75C17.3917 118.525 17.4409 116.444 19.1224 118.125C23.0532 122.056 38.8747 113.684 38.8747 107.673C38.8747 105.158 36.5538 104.534 33.717 106.287C30.5214 108.262 29.772 107.513 31.7469 104.317C33.5002 101.48 38.8367 99.1591 43.6059 99.1591C48.3751 99.1591 52.2771 97.3266 52.2771 95.0866C52.2771 91.6858 91.1868 75.1392 120.406 66.1146C124.706 64.7865 128.193 60.1187 128.156 55.7417C128.1 49.2762 127.331 48.9785 124.056 54.1539C121.838 57.6576 115.335 61.2314 109.605 62.0957C103.874 62.9599 86.464 69.61 70.9154 76.8739C55.3669 84.1377 43.3048 88.1029 44.1106 85.6851C44.9166 83.2675 47.157 81.7918 49.0895 82.4061C51.0219 83.0204 54.3553 80.688 56.4969 77.2227C60.8131 70.2391 99.0688 54.4938 111.735 54.488C116.18 54.4861 118.61 52.5331 117.136 50.1481C115.662 47.763 119.961 44.43 126.689 42.7413C134.467 40.7891 139.55 41.555 140.647 44.8442C141.595 47.6894 144.429 50.0171 146.944 50.0171C149.459 50.0171 150.436 47.1997 149.115 43.7562C147.636 39.9022 150.458 36.4906 156.455 34.8822C171.844 30.7549 175.768 31.9481 167.49 38.2377C163.287 41.4311 157.808 49.4086 155.315 55.9654C151.352 66.3885 151.892 67.8869 159.607 67.8869C164.46 67.8869 168.431 65.8382 168.431 63.3343C168.431 60.8303 172.954 59.9077 178.483 61.2837C184.011 62.6596 196.576 61.7413 206.405 59.2425L224.274 54.6994L200.82 56.1699C179.35 57.5161 169.407 53.3942 182.95 48.7622C186.022 47.7118 183.509 47.7068 177.366 48.7517C169.24 50.1331 167.52 49.3024 171.052 45.7029C178.752 37.8558 201.281 34.9946 198.51 42.2158C197.147 45.7678 199.538 48.4404 204.408 48.8072C209.811 49.2145 211.761 47.2453 210.14 43.0199C208.788 39.4978 209.971 36.6156 212.768 36.6156C215.565 36.6156 219.006 39.6195 220.415 43.291C221.824 46.9626 224.991 48.7218 227.453 47.2002C230.208 45.4979 229.598 42.9324 225.868 40.531C215.769 34.028 263.432 44.1547 302.455 56.8029C303.684 57.2011 312.73 61.1508 322.559 65.5799C350.602 78.2175 333.362 78.5618 302.404 65.9826C266.751 51.4955 249.339 48.3655 235.443 53.9452L224.274 58.4295L235.443 58.197C254.228 57.8052 292.391 67.1306 311.134 76.6929C320.908 81.6788 332.118 85.758 336.047 85.758C339.975 85.758 341.952 87.7609 340.439 90.209C338.713 93.0005 332.594 92.0262 324.026 87.5953C314.203 82.516 309.001 81.8926 305.516 85.3778C302.03 88.863 302.728 90.2253 307.999 90.2253C312.031 90.2253 316.706 92.4512 318.387 95.1715C320.373 98.3855 318.51 99.2293 313.066 97.5808C274.605 85.9338 230.504 80.4696 191.069 82.4655C153.14 84.3852 149.791 83.9351 157.563 77.9612C165.763 71.6583 165.585 71.43 154.047 73.4282C147.364 74.5856 142.96 73.8123 144.259 71.7101C145.558 69.608 142.482 67.8882 137.423 67.8882C132.363 67.8882 128.224 70.0173 128.224 72.6195C128.224 75.2216 130.284 76.077 132.802 74.5208C135.32 72.9646 136.828 74.3539 136.153 77.6078C135.478 80.8618 137.588 82.9718 140.842 82.2966C144.096 81.6215 145.485 83.1293 143.929 85.6472C142.372 88.1652 138.202 90.2253 134.662 90.2253C131.121 90.2253 128.224 92.3545 128.224 94.9566C128.224 97.5587 126.194 98.4333 123.713 96.9001C121.233 95.3669 113.925 98.2638 107.475 103.338C101.024 108.412 93.2485 112.563 90.1951 112.563C87.1417 112.563 82.1407 115.578 79.0819 119.264C70.9807 129.025 78.783 127.246 99.1855 114.68C119.454 102.196 127.48 100.459 119.289 110.329C116.23 114.015 115.225 117.03 117.055 117.03C118.886 117.03 117.88 120.046 114.822 123.731C111.763 127.417 107.112 130.433 104.486 130.433C101.86 130.433 103.614 127.481 108.383 123.873C116.948 117.395 116.948 117.313 108.41 117.172C103.654 117.094 95.0044 121.501 89.1881 126.965C80.3441 135.273 77.9588 135.841 74.6162 130.433C70.1926 123.275 64.3934 127.647 27.2132 166.172C16.5422 177.229 7.76476 184.168 7.7078 181.592L7.70602 181.59ZM129.945 82.6076C122.088 79.9886 72.7635 104.754 77.1334 109.124C78.4896 110.48 91.96 105.413 107.068 97.864C122.175 90.3147 132.47 83.4492 129.945 82.6076ZM302.455 81.3808C302.455 79.2639 295.921 76.0013 287.936 74.1308C279.95 72.2603 270.401 69.9992 266.715 69.1062C252.836 65.7431 181.119 67.843 174.011 71.8205C168.988 74.6319 178.048 75.8849 202.139 75.7104C245.229 75.3979 287.967 80.3862 291.525 86.1424C294.44 90.8602 302.455 87.3687 302.455 81.3808ZM336.071 173.727C311.102 158.669 296.334 148.301 299.855 148.301C306.733 148.301 351.597 172.352 351.597 176.039C351.597 180.832 346.625 180.091 336.071 173.727ZM150.561 168.405C153.62 164.719 158.133 161.704 160.59 161.704C163.082 161.704 162.599 164.667 159.496 168.405C156.437 172.09 151.924 175.106 149.467 175.106C146.975 175.106 147.459 172.143 150.561 168.405ZM210.872 166.171L193.002 162.972L211.989 162.338C222.432 161.989 230.976 163.714 230.976 166.171C230.976 168.628 230.473 170.353 229.859 170.005C229.244 169.656 220.7 167.931 210.872 166.171ZM190.768 155.523C190.768 154.581 195.794 152.85 201.937 151.675C208.08 150.501 213.106 151.272 213.106 153.388C213.106 155.505 208.08 157.236 201.937 157.236C195.794 157.236 190.768 156.465 190.768 155.523ZM300.518 139.576C295.767 137.852 293.852 135.221 296.264 133.731C300.872 130.882 314.894 137.489 311.261 140.796C310.103 141.85 305.269 141.301 300.518 139.576ZM124.29 120.5C129.095 111.522 145.889 103.234 151.979 106.834C153.987 108.022 156.734 104.77 158.084 99.6089C159.434 94.4474 160.806 90.1177 161.134 89.9872C161.462 89.8566 173.068 88.6843 186.925 87.382C203.09 85.8626 213.225 86.8024 215.204 90.0049C217.31 93.4118 214.276 94.2547 205.645 92.6604C188.143 89.427 163.964 94.504 163.964 101.412C163.964 108.365 152.607 114.016 133.948 116.349C130.954 116.723 129.533 119.71 130.79 122.986C132.064 126.306 130.132 128.942 126.424 128.942C121.285 128.942 120.8 127.021 124.29 120.5ZM343.872 96.4601C345.357 94.9756 349.21 94.817 352.435 96.107C355.999 97.5332 354.94 98.5916 349.736 98.806C345.026 98.9997 342.388 97.9443 343.872 96.4598V96.4601ZM65.6795 54.4845C69.3651 52.1026 75.3962 50.1539 79.0819 50.1539C85.0385 50.1539 85.0385 50.6349 79.0819 54.4845C75.3962 56.8663 69.3651 58.8153 65.6795 58.8153C59.7229 58.8153 59.7229 58.3339 65.6795 54.4845ZM297.988 47.7832C291.845 44.2718 281.29 41.3276 274.533 41.2404C267.776 41.1532 262.248 38.8376 262.248 36.094C262.248 33.1696 257.583 31.9975 250.973 33.2611C244.771 34.4466 238.833 34.0189 237.778 32.3106C236.722 30.6023 222.195 29.7107 205.495 30.3293C187.924 30.9801 178.859 30.0117 183.979 28.0304C188.845 26.1476 213.679 24.3407 239.165 24.0151C277.777 23.5217 284.663 24.4363 280.461 29.4999C276.412 34.3786 278.744 36.2677 292.287 39.0814C301.565 41.009 310.473 42.3113 312.083 41.9754C313.693 41.6393 316.143 44.3167 317.527 47.9247C320.685 56.1529 312.525 56.0937 297.988 47.7832ZM88.0168 48.1504C88.0168 46.5982 93.1637 43.3715 99.4543 40.9798C106.414 38.3337 109.642 34.6085 107.699 31.465C105.943 28.6236 106.377 27.4555 108.664 28.8689C115.001 32.785 164.885 20.0155 168.951 13.4364C171.722 8.95305 173.727 8.85113 177.86 12.9837C183.808 18.9317 182.054 19.812 132.691 35.6511C116.72 40.7758 100.135 46.3196 95.8349 47.9707C91.5349 49.6218 88.0168 49.7028 88.0168 48.1507V48.1504ZM183.026 13.8049C182.404 5.54275 184.054 4.73495 196.595 7.16049C232.986 14.199 255.954 13.23 250.79 4.87406C249.43 2.6744 249.371 0.874756 250.659 0.874756C251.946 0.874756 255.075 4.75522 257.614 9.49788C261.969 17.635 260.451 18.1266 230.686 18.2206C213.337 18.2757 195.676 19.4206 191.439 20.7654C185.921 22.5167 183.534 20.5418 183.026 13.8049H183.026ZM130.458 12.1897C149.537 6.23332 163.16 6.14298 159.496 11.997C158.268 13.9602 147.211 16.062 134.925 16.6675L112.588 17.7686L130.458 12.1897Z" fill="url(#paint0_radial_420_329)"/>
<defs>
<radialGradient id="paint0_radial_420_329" cx="0" cy="0" r="1" gradientUnits="userSpaceOnUse" gradientTransform="translate(427.5 382.5) rotate(179.259) scale(425.536 325.184)">
<stop stop-color="white" stop-opacity="0"/>
<stop offset="0.311487" stop-color="white" stop-opacity="0.0916665"/>
<stop offset="1" stop-color="white"/>
</radialGradient>
</defs>
</svg>
